<svg xmlns="http://www.w3.org/2000/svg" viewBox="0 0 120 120">
  <circle cx="60" cy="60" r="52" fill="none" stroke="#9BAF8E" stroke-width="4"/>
  <circle cx="60" cy="47" r="11" fill="none" stroke="#9BAF8E" stroke-width="4"/>
  <path d="M42 85V73c0-10 8-17 18-17s18 7 18 17v12" fill="none" stroke="#9BAF8E" stroke-width="4" stroke-linecap="round"/>
  <circle cx="37" cy="54" r="8" fill="none" stroke="#9BAF8E" stroke-width="4"/>
  <path d="M24 84V73c0-8 6-14 14-14 4 0 7 1 10 4" fill="none" stroke="#9BAF8E" stroke-width="4" stroke-linecap="round"/>
  <circle cx="83" cy="54" r="8" fill="none" stroke="#9BAF8E" stroke-width="4"/>
  <path d="M96 84V73c0-8-6-14-14-14-4 0-7 1-10 4" fill="none" stroke="#9BAF8E" stroke-width="4" stroke-linecap="round"/>
  <path d="M51 85V72h18v13" fill="none" stroke="#9BAF8E" stroke-width="4" stroke-linejoin="round"/>
</svg>